<svg xmlns="http://www.w3.org/2000/svg" viewBox="0 0 1200 168" fill="none" aria-hidden="true">
  <defs>
    <linearGradient id="glassFill" x1="0" y1="0" x2="0" y2="1">
      <stop offset="0%" stop-color="#f7f2e8" stop-opacity="0.22" />
      <stop offset="45%" stop-color="#dce6d8" stop-opacity="0.12" />
      <stop offset="100%" stop-color="#c9d4c4" stop-opacity="0.08" />
    </linearGradient>
    <linearGradient id="ironStroke" x1="0" y1="0" x2="1" y2="0">
      <stop offset="0%" stop-color="#4a3c28" />
      <stop offset="35%" stop-color="#8a6e48" />
      <stop offset="55%" stop-color="#d4b968" />
      <stop offset="72%" stop-color="#7a5c3a" />
      <stop offset="100%" stop-color="#3d3220" />
    </linearGradient>
    <linearGradient id="ironStrokeSoft" x1="0" y1="0" x2="0" y2="1">
      <stop offset="0%" stop-color="#6b563c" />
      <stop offset="100%" stop-color="#4a3c28" />
    </linearGradient>
    <filter id="frost" x="-2%" y="-2%" width="104%" height="104%">
      <feGaussianBlur in="SourceGraphic" stdDeviation="0.8" result="blur" />
      <feColorMatrix
        in="blur"
        type="matrix"
        values="1 0 0 0 0  0 1 0 0 0  0 0 1 0 0  0 0 0 0.85 0"
        result="soft"
      />
      <feMerge>
        <feMergeNode in="soft" />
        <feMergeNode in="SourceGraphic" />
      </feMerge>
    </filter>
    <filter id="ironGlow">
      <feGaussianBlur stdDeviation="0.35" result="g" />
      <feMerge>
        <feMergeNode in="g" />
        <feMergeNode in="SourceGraphic" />
      </feMerge>
    </filter>
  </defs>

  <!-- Glass door panels -->
  <g filter="url(#frost)">
    <rect x="14" y="28" width="178" height="112" rx="14" fill="url(#glassFill)" stroke="#b8973e" stroke-opacity="0.35" stroke-width="1" />
    <rect x="208" y="28" width="178" height="112" rx="14" fill="url(#glassFill)" stroke="#b8973e" stroke-opacity="0.32" stroke-width="1" />
    <rect x="402" y="28" width="396" height="112" rx="16" fill="url(#glassFill)" stroke="#b8973e" stroke-opacity="0.38" stroke-width="1" />
    <rect x="814" y="28" width="178" height="112" rx="14" fill="url(#glassFill)" stroke="#b8973e" stroke-opacity="0.32" stroke-width="1" />
    <rect x="1008" y="28" width="178" height="112" rx="14" fill="url(#glassFill)" stroke="#b8973e" stroke-opacity="0.35" stroke-width="1" />
  </g>
  <path
    d="M24 52h158M216 52h158M418 52h364M826 52h158M1020 52h158"
    stroke="#f7f2e8"
    stroke-opacity="0.06"
    stroke-width="14"
    stroke-linecap="round"
  />

  <!-- Wrought iron: arched transom + frame (door surround) -->
  <path
    d="M14 44
       C14 26 28 22 600 18
       C1172 22 1186 26 1186 44
       L1186 136
       C1186 148 1174 152 600 154
       C26 152 14 148 14 136
       Z"
    stroke="url(#ironStroke)"
    stroke-width="3.2"
    stroke-linejoin="round"
    fill="none"
    filter="url(#ironGlow)"
  />

  <!-- Vertical mullions -->
  <path
    d="M200 26v122M394 26v122M600 26v122M806 26v122M1000 26v122"
    stroke="url(#ironStrokeSoft)"
    stroke-width="2.4"
    stroke-linecap="round"
    filter="url(#ironGlow)"
  />

  <!-- Top whiplash rail -->
  <path
    d="M42 34c80-26 160-22 240 2s160 28 240 4 160-32 240-6 160 26 238 8"
    stroke="url(#ironStroke)"
    stroke-width="2.2"
    stroke-linecap="round"
    filter="url(#ironGlow)"
  />
  <path
    d="M60 48c60 18 120 10 180-8s120-22 180-4 120 24 180 6 120-18 180-10 120 14 168 6"
    stroke="url(#ironStrokeSoft)"
    stroke-width="1.4"
    stroke-linecap="round"
    opacity="0.85"
  />

  <!-- Central peacock / lily symmetry -->
  <path
    d="M600 40c-46 0-84 28-84 64s38 64 84 64 84-28 84-64-38-64-84-64z"
    stroke="url(#ironStroke)"
    stroke-width="2"
    opacity="0.9"
    filter="url(#ironGlow)"
  />
  <path
    d="M600 52v88M600 52c-22 14-34 34-34 58M600 52c22 14 34 34 34 58"
    stroke="url(#ironStroke)"
    stroke-width="1.8"
    stroke-linecap="round"
    filter="url(#ironGlow)"
  />
  <path
    d="M600 62c-52-18-92-8-120 22M600 62c52-18 92-8 120 22"
    stroke="url(#ironStrokeSoft)"
    stroke-width="1.5"
    stroke-linecap="round"
  />

  <!-- Side scrolls (wrought curls) -->
  <path
    d="M118 96c-18-28-52-36-78-18M118 96c-10 24 6 48 34 52M92 118c-22-8-40 8-36 32"
    stroke="url(#ironStroke)"
    stroke-width="2"
    stroke-linecap="round"
    filter="url(#ironGlow)"
  />
  <path
    d="M1082 96c18-28 52-36 78-18M1082 96c10 24-6 48-34 52M1108 118c22-8 40 8 36 32"
    stroke="url(#ironStroke)"
    stroke-width="2"
    stroke-linecap="round"
    filter="url(#ironGlow)"
  />

  <!-- Lower rail with lily pad rhythm -->
  <path
    d="M32 132c96 10 192 6 288-6s192-14 288-2 192 18 288 8 192-22 264-14"
    stroke="url(#ironStroke)"
    stroke-width="2.2"
    stroke-linecap="round"
    filter="url(#ironGlow)"
  />
  <path
    d="M120 118c28 8 56-4 72-26s20-48 8-70M1080 118c-28 8-56-4-72-26s-20-48-8-70"
    stroke="url(#ironStrokeSoft)"
    stroke-width="1.6"
    stroke-linecap="round"
  />

  <!-- Rivet bosses -->
  <g fill="#d4b968" stroke="#4a3c28" stroke-width="0.6" opacity="0.92">
    <circle cx="200" cy="34" r="3.2" />
    <circle cx="394" cy="34" r="3.2" />
    <circle cx="600" cy="30" r="3.6" />
    <circle cx="806" cy="34" r="3.2" />
    <circle cx="1000" cy="34" r="3.2" />
    <circle cx="200" cy="134" r="3" />
    <circle cx="394" cy="134" r="3" />
    <circle cx="600" cy="138" r="3.4" />
    <circle cx="806" cy="134" r="3" />
    <circle cx="1000" cy="134" r="3" />
  </g>
</svg>
